<?xml version="1.0" standalone="no"?>
<!DOCTYPE svg PUBLIC "-//W3C//DTD SVG 20010904//EN"
 "http://www.w3.org/TR/2001/REC-SVG-20010904/DTD/svg10.dtd">
<svg version="1.0" xmlns="http://www.w3.org/2000/svg"
 width="24.000000pt" height="24.000000pt" viewBox="0 0 24.000000 24.000000"
 preserveAspectRatio="xMidYMid meet">

<g transform="translate(0.000000,24.000000) scale(0.100000,-0.100000)"
fill="#000000" stroke="none">
<path d="M70 163 c0 -3 7 -15 17 -25 15 -17 15 -19 -2 -38 -24 -26 -11 -39 15
-15 19 17 21 17 40 0 26 -24 39 -11 15 15 -17 19 -17 21 0 40 24 26 11 39 -15
15 -19 -17 -21 -17 -38 -2 -19 18 -32 22 -32 10z"/>
</g>
</svg>
