<?xml version="1.0" encoding="UTF-8"?>
<svg version="1.1" xmlns="http://www.w3.org/2000/svg" width="225" height="225">
<path d="M0 0 C74.25 0 148.5 0 225 0 C225 74.25 225 148.5 225 225 C150.75 225 76.5 225 0 225 C0 150.75 0 76.5 0 0 Z " fill="#404040" transform="translate(0,0)"/>
<path d="M0 0 C7.26 0 14.52 0 22 0 C21.98839844 1.89105469 21.97679688 3.78210938 21.96484375 5.73046875 C21.95546384 8.21614485 21.94636385 10.70182201 21.9375 13.1875 C21.92912109 14.43337891 21.92074219 15.67925781 21.91210938 16.96289062 C21.90888672 18.16494141 21.90566406 19.36699219 21.90234375 20.60546875 C21.89710693 21.71043701 21.89187012 22.81540527 21.88647461 23.95385742 C21.99119192 26.76365942 22.40069676 29.26180928 23 32 C23 33.66666667 23 35.33333333 23 37 C23.32441604 38.66842534 23.65939189 40.33480481 24 42 C24.17776846 43.49872484 24.34342962 44.99891256 24.5 46.5 C24.84000177 49.71939178 25.33273445 52.83048865 26 56 C26.144375 57.11375 26.28875 58.2275 26.4375 59.375 C26.92506235 63.01162826 26.92506235 63.01162826 28 66.5 C29.00234789 70.00821761 29.48470645 73.39294512 30 77 C30.88950295 80.38011119 31.89492153 83.68476459 33 87 C33.69603291 89.08809872 34.33810483 91.19463705 34.9375 93.3125 C37.06217864 100.68638469 39.63024679 107.54777651 42.87890625 114.5078125 C44 117 44 117 45 120.0625 C47.00557875 125.95388758 49.49694186 131.64746191 54 136 C54.66666667 137.66666667 55.33333333 139.33333333 56 141 C56.97753644 142.02196992 57.9805881 143.01979625 59 144 C60.34331654 145.99330842 61.67594012 147.99384866 63 150 C65.15874875 152.95028996 67.17965012 155.14970843 70 157.5 C73 160 73 160 75 162.625 C77.37308359 165.44303677 79.69159072 166.45138289 83 168 C84.6875 169.5625 84.6875 169.5625 86 171 C88.91765 172.9451 90.62537285 173.45276317 94 174 C94 174.33 94 174.66 94 175 C96.64 175.33 99.28 175.66 102 176 C102 176.33 102 176.66 102 177 C141.105 177.495 141.105 177.495 181 178 C181.99 175.03 181.99 175.03 183 172 C183.63815344 170.65278717 184.29325371 169.31252882 185 168 C185.66 168 186.32 168 187 168 C187.26039063 167.14921875 187.52078125 166.2984375 187.7890625 165.421875 C189.05589442 161.8420532 190.62877111 158.62045053 192.375 155.25 C195.25048956 149.60261547 197.80465075 143.94460825 200 138 C200.36480469 137.04867187 200.72960937 136.09734375 201.10546875 135.1171875 C212.0570713 105.70026156 220.00542681 73.76745191 221.54980469 42.34643555 C222 40 222 40 225 36 C225 97.38 225 158.76 225 222 C150.75 222 76.5 222 0 222 C0 148.74 0 75.48 0 0 Z " fill="#292929" transform="translate(0,3)"/>
<path d="M0 0 C0.33 0 0.66 0 1 0 C1 61.38 1 122.76 1 186 C-32 186 -65 186 -99 186 C-99 185.34 -99 184.68 -99 184 C-96.69 184 -94.38 184 -92 184 C-92 183.34 -92 182.68 -92 182 C-90.68 182 -89.36 182 -88 182 C-88 181.34 -88 180.68 -88 180 C-86.35 180 -84.7 180 -83 180 C-83 179.34 -83 178.68 -83 178 C-81.68 178 -80.36 178 -79 178 C-79 177.34 -79 176.68 -79 176 C-78.01 176 -77.02 176 -76 176 C-76 175.34 -76 174.68 -76 174 C-75.34 174 -74.68 174 -74 174 C-74 173.34 -74 172.68 -74 172 C-73.01 172 -72.02 172 -71 172 C-71 171.34 -71 170.68 -71 170 C-70.01 170 -69.02 170 -68 170 C-68 169.34 -68 168.68 -68 168 C-67.34 168 -66.68 168 -66 168 C-66 167.34 -66 166.68 -66 166 C-65.34 166 -64.68 166 -64 166 C-64 165.34 -64 164.68 -64 164 C-63.34 164 -62.68 164 -62 164 C-62 163.34 -62 162.68 -62 162 C-61.34 162 -60.68 162 -60 162 C-60 161.34 -60 160.68 -60 160 C-59.34 160 -58.68 160 -58 160 C-58 159.34 -58 158.68 -58 158 C-57.34 158 -56.68 158 -56 158 C-56 157.34 -56 156.68 -56 156 C-55.34 156 -54.68 156 -54 156 C-54 155.34 -54 154.68 -54 154 C-53.34 154 -52.68 154 -52 154 C-51.67 152.68 -51.34 151.36 -51 150 C-50.34 150 -49.68 150 -49 150 C-48.67 148.68 -48.34 147.36 -48 146 C-47.34 146 -46.68 146 -46 146 C-45.67 144.68 -45.34 143.36 -45 142 C-44.34 142 -43.68 142 -43 142 C-42.566875 140.63875 -42.566875 140.63875 -42.125 139.25 C-41.23468224 136.67797092 -40.28505587 134.38653234 -39 132 C-38.34 132 -37.68 132 -37 132 C-36.73960937 131.14921875 -36.47921875 130.2984375 -36.2109375 129.421875 C-34.94410558 125.8420532 -33.37122889 122.62045053 -31.625 119.25 C-28.74951044 113.60261547 -26.19534925 107.94460825 -24 102 C-23.63519531 101.04867187 -23.27039063 100.09734375 -22.89453125 99.1171875 C-11.89289314 69.56586183 -4.32685646 37.8557136 -2.35253906 6.34643555 C-1.98129598 3.87550949 -1.234723 2.15702745 0 0 Z " fill="#000000" transform="translate(224,39)"/>
<path d="M0 0 C8.25 0 16.5 0 25 0 C24.67 0.99 24.34 1.98 24 3 C16.08 3 8.16 3 0 3 C0 2.01 0 1.02 0 0 Z " fill="#9C9C9C" transform="translate(0,0)"/>
</svg>
